<mxfile host="app.diagrams.net" modified="2024-09-08T11:24:05.912Z" agent="Mozilla/5.0 (Windows NT 10.0; Win64; x64) AppleWebKit/537.36 (KHTML, like Gecko) Chrome/128.0.0.0 Safari/537.36 Edg/128.0.0.0" etag="uvv9P36rSyddmQkH97Sr" version="24.6.3" type="device">
  <diagram id="C5RBs43oDa-KdzZeNtuy" name="Page-1">
    <mxGraphModel dx="613" dy="785" grid="1" gridSize="10" guides="1" tooltips="1" connect="1" arrows="1" fold="1" page="1" pageScale="1" pageWidth="827" pageHeight="1169" math="0" shadow="0">
      <root>
        <mxCell id="WIyWlLk6GJQsqaUBKTNV-0" />
        <mxCell id="WIyWlLk6GJQsqaUBKTNV-1" parent="WIyWlLk6GJQsqaUBKTNV-0" />
        <mxCell id="UsFYtq8W0Bb7JKL5Qobg-13" style="edgeStyle=orthogonalEdgeStyle;rounded=0;orthogonalLoop=1;jettySize=auto;html=1;exitX=0.5;exitY=1;exitDx=0;exitDy=0;entryX=0.5;entryY=0;entryDx=0;entryDy=0;" edge="1" parent="WIyWlLk6GJQsqaUBKTNV-1" source="WIyWlLk6GJQsqaUBKTNV-3" target="UsFYtq8W0Bb7JKL5Qobg-0">
          <mxGeometry relative="1" as="geometry" />
        </mxCell>
        <mxCell id="WIyWlLk6GJQsqaUBKTNV-3" value="Start" style="rounded=1;whiteSpace=wrap;html=1;fontSize=12;glass=0;strokeWidth=1;shadow=0;" parent="WIyWlLk6GJQsqaUBKTNV-1" vertex="1">
          <mxGeometry x="160" y="70" width="120" height="40" as="geometry" />
        </mxCell>
        <mxCell id="UsFYtq8W0Bb7JKL5Qobg-27" value="" style="edgeStyle=orthogonalEdgeStyle;rounded=0;orthogonalLoop=1;jettySize=auto;html=1;" edge="1" parent="WIyWlLk6GJQsqaUBKTNV-1" source="WIyWlLk6GJQsqaUBKTNV-11" target="UsFYtq8W0Bb7JKL5Qobg-26">
          <mxGeometry relative="1" as="geometry" />
        </mxCell>
        <mxCell id="WIyWlLk6GJQsqaUBKTNV-11" value="Process the data on Raspberry Pi" style="rounded=1;whiteSpace=wrap;html=1;fontSize=12;glass=0;strokeWidth=1;shadow=0;" parent="WIyWlLk6GJQsqaUBKTNV-1" vertex="1">
          <mxGeometry x="105" y="330" width="230" height="40" as="geometry" />
        </mxCell>
        <mxCell id="UsFYtq8W0Bb7JKL5Qobg-20" style="edgeStyle=orthogonalEdgeStyle;rounded=0;orthogonalLoop=1;jettySize=auto;html=1;entryX=0;entryY=0.5;entryDx=0;entryDy=0;" edge="1" parent="WIyWlLk6GJQsqaUBKTNV-1" source="WIyWlLk6GJQsqaUBKTNV-12" target="UsFYtq8W0Bb7JKL5Qobg-19">
          <mxGeometry relative="1" as="geometry" />
        </mxCell>
        <mxCell id="UsFYtq8W0Bb7JKL5Qobg-22" style="edgeStyle=orthogonalEdgeStyle;rounded=0;orthogonalLoop=1;jettySize=auto;html=1;entryX=0.5;entryY=0;entryDx=0;entryDy=0;" edge="1" parent="WIyWlLk6GJQsqaUBKTNV-1" source="WIyWlLk6GJQsqaUBKTNV-12" target="WIyWlLk6GJQsqaUBKTNV-11">
          <mxGeometry relative="1" as="geometry" />
        </mxCell>
        <mxCell id="WIyWlLk6GJQsqaUBKTNV-12" value="Is the movement abnormal?" style="rounded=1;whiteSpace=wrap;html=1;fontSize=12;glass=0;strokeWidth=1;shadow=0;" parent="WIyWlLk6GJQsqaUBKTNV-1" vertex="1">
          <mxGeometry x="140" y="250" width="160" height="40" as="geometry" />
        </mxCell>
        <mxCell id="UsFYtq8W0Bb7JKL5Qobg-18" value="" style="edgeStyle=orthogonalEdgeStyle;rounded=0;orthogonalLoop=1;jettySize=auto;html=1;" edge="1" parent="WIyWlLk6GJQsqaUBKTNV-1" source="UsFYtq8W0Bb7JKL5Qobg-0" target="UsFYtq8W0Bb7JKL5Qobg-9">
          <mxGeometry relative="1" as="geometry" />
        </mxCell>
        <mxCell id="UsFYtq8W0Bb7JKL5Qobg-0" value="Sensor detects manhole cap movement" style="rounded=1;whiteSpace=wrap;html=1;" vertex="1" parent="WIyWlLk6GJQsqaUBKTNV-1">
          <mxGeometry x="120" y="130" width="200" height="40" as="geometry" />
        </mxCell>
        <mxCell id="UsFYtq8W0Bb7JKL5Qobg-28" value="" style="edgeStyle=orthogonalEdgeStyle;rounded=0;orthogonalLoop=1;jettySize=auto;html=1;entryX=0.5;entryY=0;entryDx=0;entryDy=0;" edge="1" parent="WIyWlLk6GJQsqaUBKTNV-1" source="UsFYtq8W0Bb7JKL5Qobg-9" target="WIyWlLk6GJQsqaUBKTNV-12">
          <mxGeometry relative="1" as="geometry" />
        </mxCell>
        <mxCell id="UsFYtq8W0Bb7JKL5Qobg-9" value="Data sent to Raspberry Pi via wireless connection" style="rounded=1;whiteSpace=wrap;html=1;" vertex="1" parent="WIyWlLk6GJQsqaUBKTNV-1">
          <mxGeometry x="80" y="190" width="280" height="40" as="geometry" />
        </mxCell>
        <mxCell id="UsFYtq8W0Bb7JKL5Qobg-19" value="End" style="rounded=1;whiteSpace=wrap;html=1;" vertex="1" parent="WIyWlLk6GJQsqaUBKTNV-1">
          <mxGeometry x="360" y="250" width="74" height="40" as="geometry" />
        </mxCell>
        <mxCell id="UsFYtq8W0Bb7JKL5Qobg-21" value="No&lt;div&gt;&lt;br&gt;&lt;/div&gt;" style="text;html=1;align=center;verticalAlign=middle;resizable=0;points=[];autosize=1;strokeColor=none;fillColor=none;" vertex="1" parent="WIyWlLk6GJQsqaUBKTNV-1">
          <mxGeometry x="310" y="245" width="40" height="40" as="geometry" />
        </mxCell>
        <mxCell id="UsFYtq8W0Bb7JKL5Qobg-25" value="&lt;div&gt;&lt;span style=&quot;background-color: initial;&quot;&gt;&amp;nbsp; &amp;nbsp;Yes&lt;/span&gt;&lt;br&gt;&lt;/div&gt;" style="text;html=1;align=center;verticalAlign=middle;whiteSpace=wrap;rounded=0;" vertex="1" parent="WIyWlLk6GJQsqaUBKTNV-1">
          <mxGeometry x="200" y="290" width="60" height="30" as="geometry" />
        </mxCell>
        <mxCell id="UsFYtq8W0Bb7JKL5Qobg-30" value="" style="edgeStyle=orthogonalEdgeStyle;rounded=0;orthogonalLoop=1;jettySize=auto;html=1;" edge="1" parent="WIyWlLk6GJQsqaUBKTNV-1" source="UsFYtq8W0Bb7JKL5Qobg-26" target="UsFYtq8W0Bb7JKL5Qobg-29">
          <mxGeometry relative="1" as="geometry" />
        </mxCell>
        <mxCell id="UsFYtq8W0Bb7JKL5Qobg-26" value="Transmit alert via SMS/Mobile App" style="rounded=1;whiteSpace=wrap;html=1;" vertex="1" parent="WIyWlLk6GJQsqaUBKTNV-1">
          <mxGeometry x="105" y="390" width="230" height="40" as="geometry" />
        </mxCell>
        <mxCell id="UsFYtq8W0Bb7JKL5Qobg-32" value="" style="edgeStyle=orthogonalEdgeStyle;rounded=0;orthogonalLoop=1;jettySize=auto;html=1;" edge="1" parent="WIyWlLk6GJQsqaUBKTNV-1" source="UsFYtq8W0Bb7JKL5Qobg-29" target="UsFYtq8W0Bb7JKL5Qobg-31">
          <mxGeometry relative="1" as="geometry" />
        </mxCell>
        <mxCell id="UsFYtq8W0Bb7JKL5Qobg-29" value="Check GPS proximity to user location" style="rounded=1;whiteSpace=wrap;html=1;" vertex="1" parent="WIyWlLk6GJQsqaUBKTNV-1">
          <mxGeometry x="100" y="450" width="240" height="40" as="geometry" />
        </mxCell>
        <mxCell id="UsFYtq8W0Bb7JKL5Qobg-35" value="" style="edgeStyle=orthogonalEdgeStyle;rounded=0;orthogonalLoop=1;jettySize=auto;html=1;" edge="1" parent="WIyWlLk6GJQsqaUBKTNV-1" source="UsFYtq8W0Bb7JKL5Qobg-31" target="UsFYtq8W0Bb7JKL5Qobg-34">
          <mxGeometry relative="1" as="geometry" />
        </mxCell>
        <mxCell id="UsFYtq8W0Bb7JKL5Qobg-40" value="" style="edgeStyle=orthogonalEdgeStyle;rounded=0;orthogonalLoop=1;jettySize=auto;html=1;" edge="1" parent="WIyWlLk6GJQsqaUBKTNV-1" source="UsFYtq8W0Bb7JKL5Qobg-31" target="UsFYtq8W0Bb7JKL5Qobg-39">
          <mxGeometry relative="1" as="geometry" />
        </mxCell>
        <mxCell id="UsFYtq8W0Bb7JKL5Qobg-31" value="Is the user near the manhole?" style="rounded=1;whiteSpace=wrap;html=1;" vertex="1" parent="WIyWlLk6GJQsqaUBKTNV-1">
          <mxGeometry x="130" y="510" width="180" height="40" as="geometry" />
        </mxCell>
        <mxCell id="UsFYtq8W0Bb7JKL5Qobg-33" style="edgeStyle=orthogonalEdgeStyle;rounded=0;orthogonalLoop=1;jettySize=auto;html=1;exitX=0.5;exitY=1;exitDx=0;exitDy=0;" edge="1" parent="WIyWlLk6GJQsqaUBKTNV-1" source="UsFYtq8W0Bb7JKL5Qobg-31" target="UsFYtq8W0Bb7JKL5Qobg-31">
          <mxGeometry relative="1" as="geometry" />
        </mxCell>
        <mxCell id="UsFYtq8W0Bb7JKL5Qobg-38" value="" style="edgeStyle=orthogonalEdgeStyle;rounded=0;orthogonalLoop=1;jettySize=auto;html=1;" edge="1" parent="WIyWlLk6GJQsqaUBKTNV-1" source="UsFYtq8W0Bb7JKL5Qobg-34" target="UsFYtq8W0Bb7JKL5Qobg-37">
          <mxGeometry relative="1" as="geometry" />
        </mxCell>
        <mxCell id="UsFYtq8W0Bb7JKL5Qobg-34" value="Wait for further movement&amp;nbsp;" style="rounded=1;whiteSpace=wrap;html=1;" vertex="1" parent="WIyWlLk6GJQsqaUBKTNV-1">
          <mxGeometry x="370" y="510" width="190" height="40" as="geometry" />
        </mxCell>
        <mxCell id="UsFYtq8W0Bb7JKL5Qobg-36" value="No" style="text;html=1;align=center;verticalAlign=middle;whiteSpace=wrap;rounded=0;" vertex="1" parent="WIyWlLk6GJQsqaUBKTNV-1">
          <mxGeometry x="310" y="500" width="60" height="30" as="geometry" />
        </mxCell>
        <mxCell id="UsFYtq8W0Bb7JKL5Qobg-37" value="Start" style="rounded=1;whiteSpace=wrap;html=1;" vertex="1" parent="WIyWlLk6GJQsqaUBKTNV-1">
          <mxGeometry x="410" y="570" width="110" height="40" as="geometry" />
        </mxCell>
        <mxCell id="UsFYtq8W0Bb7JKL5Qobg-43" value="" style="edgeStyle=orthogonalEdgeStyle;rounded=0;orthogonalLoop=1;jettySize=auto;html=1;" edge="1" parent="WIyWlLk6GJQsqaUBKTNV-1" source="UsFYtq8W0Bb7JKL5Qobg-39" target="UsFYtq8W0Bb7JKL5Qobg-42">
          <mxGeometry relative="1" as="geometry" />
        </mxCell>
        <mxCell id="UsFYtq8W0Bb7JKL5Qobg-39" value="Trigger alert (beep/vibration)" style="rounded=1;whiteSpace=wrap;html=1;" vertex="1" parent="WIyWlLk6GJQsqaUBKTNV-1">
          <mxGeometry x="110" y="590" width="220" height="40" as="geometry" />
        </mxCell>
        <mxCell id="UsFYtq8W0Bb7JKL5Qobg-41" value="Yes" style="text;html=1;align=center;verticalAlign=middle;whiteSpace=wrap;rounded=0;" vertex="1" parent="WIyWlLk6GJQsqaUBKTNV-1">
          <mxGeometry x="210" y="550" width="60" height="30" as="geometry" />
        </mxCell>
        <mxCell id="UsFYtq8W0Bb7JKL5Qobg-42" value="End" style="rounded=1;whiteSpace=wrap;html=1;" vertex="1" parent="WIyWlLk6GJQsqaUBKTNV-1">
          <mxGeometry x="160" y="660" width="120" height="40" as="geometry" />
        </mxCell>
      </root>
    </mxGraphModel>
  </diagram>
</mxfile>
